<mxfile host="Electron" agent="Mozilla/5.0 (Windows NT 10.0; Win64; x64) AppleWebKit/537.36 (KHTML, like Gecko) draw.io/24.7.5 Chrome/126.0.6478.183 Electron/31.3.0 Safari/537.36" version="24.7.5">
  <diagram name="ページ1" id="LW6lj0glvppLR7JqUz9Y">
    <mxGraphModel dx="1112" dy="610" grid="1" gridSize="10" guides="1" tooltips="1" connect="1" arrows="1" fold="1" page="1" pageScale="1" pageWidth="3300" pageHeight="4681" math="0" shadow="0">
      <root>
        <mxCell id="0" />
        <mxCell id="1" parent="0" />
        <mxCell id="pYAwiIOYewWWsSjN8rBA-18" value="" style="rounded=0;whiteSpace=wrap;html=1;" vertex="1" parent="1">
          <mxGeometry x="190" y="110" width="680" height="340" as="geometry" />
        </mxCell>
        <mxCell id="nHSD6mmTbGKf_pb_bQ0f-1" value="" style="rounded=0;whiteSpace=wrap;html=1;movable=1;resizable=1;rotatable=1;deletable=1;editable=1;locked=0;connectable=1;" parent="1" vertex="1">
          <mxGeometry x="200" y="120" width="360" height="320" as="geometry" />
        </mxCell>
        <mxCell id="pYAwiIOYewWWsSjN8rBA-1" value="フロントエンド" style="rounded=0;whiteSpace=wrap;html=1;" vertex="1" parent="1">
          <mxGeometry x="200" y="120" width="100" height="40" as="geometry" />
        </mxCell>
        <mxCell id="pYAwiIOYewWWsSjN8rBA-2" style="shape=image;editableCssRules=.*;image=data:image/svg+xml,PHN2ZyB2aWV3Qm94PSIwIDAgMjQgMjQiIHhtbG5zPSJodHRwOi8vd3d3LnczLm9yZy8yMDAwL3N2ZyI+PHN0eWxlPip7ZmlsbDojNjFEQUZCfTwvc3R5bGU+PHBhdGggZD0iTTE0LjIzIDEyLjAwNGEyLjIzNiAyLjIzNiAwIDAgMS0yLjIzNSAyLjIzNiAyLjIzNiAyLjIzNiAwIDAgMS0yLjIzNi0yLjIzNiAyLjIzNiAyLjIzNiAwIDAgMSAyLjIzNS0yLjIzNiAyLjIzNiAyLjIzNiAwIDAgMSAyLjIzNiAyLjIzNnptMi42NDgtMTAuNjljLTEuMzQ2IDAtMy4xMDcuOTYtNC44ODggMi42MjItMS43OC0xLjY1My0zLjU0Mi0yLjYwMi00Ljg4Ny0yLjYwMi0uNDEgMC0uNzgzLjA5My0xLjEwNi4yNzgtMS4zNzUuNzkzLTEuNjgzIDMuMjY0LS45NzMgNi4zNjVDMS45OCA4LjkxNyAwIDEwLjQyIDAgMTIuMDA0YzAgMS41OSAxLjk5IDMuMDk3IDUuMDQzIDQuMDMtLjcwNCAzLjExMy0uMzkgNS41ODguOTg4IDYuMzguMzIuMTg3LjY5LjI3NSAxLjEwMi4yNzUgMS4zNDUgMCAzLjEwNy0uOTYgNC44ODgtMi42MjQgMS43OCAxLjY1NCAzLjU0MiAyLjYwMyA0Ljg4NyAyLjYwMy40MSAwIC43ODMtLjA5IDEuMTA2LS4yNzUgMS4zNzQtLjc5MiAxLjY4My0zLjI2My45NzMtNi4zNjVDMjIuMDIgMTUuMDk2IDI0IDEzLjU5IDI0IDEyLjAwNGMwLTEuNTktMS45OS0zLjA5Ny01LjA0My00LjAzMi43MDQtMy4xMS4zOS01LjU4Ny0uOTg4LTYuMzgtLjMxOC0uMTg0LS42ODgtLjI3Ny0xLjA5Mi0uMjc4em0tLjAwNSAxLjA5di4wMDZjLjIyNSAwIC40MDYuMDQ0LjU1OC4xMjcuNjY2LjM4Mi45NTUgMS44MzUuNzMgMy43MDQtLjA1NC40Ni0uMTQyLjk0NS0uMjUgMS40NC0uOTYtLjIzNi0yLjAwNi0uNDE3LTMuMTA3LS41MzQtLjY2LS45MDUtMS4zNDUtMS43MjctMi4wMzUtMi40NDcgMS41OTItMS40OCAzLjA4Ny0yLjI5MiA0LjEwNS0yLjI5NXptLTkuNzcuMDJjMS4wMTIgMCAyLjUxNC44MDggNC4xMSAyLjI4LS42ODYuNzItMS4zNyAxLjUzNy0yLjAyIDIuNDQyLTEuMTA3LjExNy0yLjE1NC4yOTgtMy4xMTMuNTM4LS4xMTItLjQ5LS4xOTUtLjk2NC0uMjU0LTEuNDItLjIzLTEuODY4LjA1NC0zLjMyLjcxNC0zLjcwNy4xOS0uMDkuNC0uMTI3LjU2My0uMTMyem00Ljg4MiAzLjA1Yy40NTUuNDY4LjkxLjk5MiAxLjM2IDEuNTY0LS40NC0uMDItLjg5LS4wMzQtMS4zNDUtLjAzNC0uNDYgMC0uOTE1LjAxLTEuMzYuMDM0LjQ0LS41NzIuODk1LTEuMDk2IDEuMzQ1LTEuNTY1ek0xMiA4LjFjLjc0IDAgMS40NzcuMDM0IDIuMjAyLjA5My40MDYuNTgyLjgwMiAxLjIwMyAxLjE4MyAxLjg2LjM3Mi42NC43MSAxLjI5IDEuMDE4IDEuOTQ2LS4zMDguNjU1LS42NDYgMS4zMS0xLjAxMyAxLjk1LS4zOC42Ni0uNzczIDEuMjg4LTEuMTggMS44Ny0uNzI4LjA2My0xLjQ2Ni4wOTgtMi4yMS4wOTgtLjc0IDAtMS40NzctLjAzNS0yLjIwMi0uMDkzLS40MDYtLjU4Mi0uODAyLTEuMjA0LTEuMTgzLTEuODYtLjM3Mi0uNjQtLjcxLTEuMjktMS4wMTgtMS45NDYuMzAzLS42NTcuNjQ2LTEuMzEzIDEuMDEzLTEuOTU0LjM4LS42Ni43NzMtMS4yODYgMS4xOC0xLjg2OC43MjgtLjA2NCAxLjQ2Ni0uMDk4IDIuMjEtLjA5OHptLTMuNjM1LjI1NGMtLjI0LjM3Ny0uNDguNzYzLS43MDQgMS4xNi0uMjI1LjM5LS40MzUuNzgyLS42MzUgMS4xNzQtLjI2NS0uNjU2LS40OS0xLjMxLS42NzYtMS45NDcuNjQtLjE1IDEuMzE1LS4yODMgMi4wMTUtLjM4NnptNy4yNiAwYy42OTUuMTAzIDEuMzY1LjIzIDIuMDA2LjM4Ny0uMTguNjMyLS40MDUgMS4yODItLjY2IDEuOTMzLS4yLS4zOS0uNDEtLjc4My0uNjQtMS4xNzQtLjIyNS0uMzkyLS40NjUtLjc3NC0uNzA1LTEuMTQ2em0zLjA2My42NzVjLjQ4NC4xNS45NDQuMzE3IDEuMzc1LjQ5OCAxLjczMi43NCAyLjg1MiAxLjcwOCAyLjg1MiAyLjQ3Ni0uMDA1Ljc2OC0xLjEyNSAxLjc0LTIuODU3IDIuNDc1LS40Mi4xOC0uODguMzQyLTEuMzU1LjQ5My0uMjgtLjk1OC0uNjQ2LTEuOTU2LTEuMS0yLjk4LjQ1LTEuMDE3LjgxLTIuMDEgMS4wODUtMi45NjR6bS0xMy4zOTUuMDA0Yy4yNzguOTYuNjQ1IDEuOTU3IDEuMSAyLjk4LS40NSAxLjAxNy0uODEyIDIuMDEtMS4wODYgMi45NjQtLjQ4NC0uMTUtLjk0NC0uMzE4LTEuMzctLjUtMS43MzItLjczNy0yLjg1Mi0xLjcwNi0yLjg1Mi0yLjQ3NCAwLS43NjggMS4xMi0xLjc0MiAyLjg1Mi0yLjQ3Ni40Mi0uMTguODgtLjM0MiAxLjM1Ni0uNDk0em0xMS42NzggNC4yOGMuMjY1LjY1Ny40OSAxLjMxMi42NzYgMS45NDgtLjY0LjE1Ny0xLjMxNi4yOS0yLjAxNi4zOS4yNC0uMzc1LjQ4LS43NjIuNzA1LTEuMTU4LjIyNS0uMzkuNDM1LS43ODguNjM2LTEuMTh6bS05Ljk0NS4wMmMuMi4zOTIuNDEuNzgzLjY0IDEuMTc1LjIzLjM5LjQ2NS43NzIuNzA1IDEuMTQzLS42OTUtLjEwMi0xLjM2NS0uMjMtMi4wMDYtLjM4Ni4xOC0uNjMuNDA2LTEuMjgyLjY2LTEuOTMzek0xNy45MiAxNi4zMmMuMTEyLjQ5My4yLjk2OC4yNTQgMS40MjMuMjMgMS44NjgtLjA1NCAzLjMyLS43MTQgMy43MDgtLjE0Ny4wOS0uMzM4LjEyOC0uNTYzLjEyOC0xLjAxMiAwLTIuNTE0LS44MDctNC4xMS0yLjI4LjY4Ni0uNzIgMS4zNy0xLjUzNiAyLjAyLTIuNDQgMS4xMDctLjExOCAyLjE1NC0uMyAzLjExMy0uNTR6bS0xMS44My4wMWMuOTYuMjM0IDIuMDA2LjQxNSAzLjEwNy41MzIuNjYuOTA1IDEuMzQ1IDEuNzI3IDIuMDM1IDIuNDQ2LTEuNTk1IDEuNDgzLTMuMDkyIDIuMjk1LTQuMTEgMi4yOTUtLjIyLS4wMDUtLjQwNi0uMDUtLjU1My0uMTMyLS42NjYtLjM4LS45NTUtMS44MzQtLjczLTMuNzAzLjA1NC0uNDYuMTQyLS45NDQuMjUtMS40Mzh6bTQuNTYuNjRjLjQ0LjAyLjg5LjAzNCAxLjM0NS4wMzQuNDYgMCAuOTE1LS4wMSAxLjM2LS4wMzQtLjQ0LjU3Mi0uODk1IDEuMDk1LTEuMzQ1IDEuNTY1LS40NTUtLjQ3LS45MS0uOTkzLTEuMzYtMS41NjV6Ii8+PC9zdmc+;" vertex="1" parent="1">
          <mxGeometry x="210" y="170" width="130" height="110" as="geometry" />
        </mxCell>
        <mxCell id="pYAwiIOYewWWsSjN8rBA-3" style="shape=image;editableCssRules=.*;image=data:image/svg+xml,PHN2ZyB2aWV3Qm94PSIwIDAgMjQgMjQiIHhtbG5zPSJodHRwOi8vd3d3LnczLm9yZy8yMDAwL3N2ZyI+PHN0eWxlPip7ZmlsbDojRTM0RjI2fTwvc3R5bGU+PHBhdGggZD0iTTEuNSAwaDIxbC0xLjkxIDIxLjU2M0wxMS45NzcgMjRsLTguNTY0LTIuNDM4TDEuNSAwem03LjAzMSA5Ljc1bC0uMjMyLTIuNzE4IDEwLjA1OS4wMDMuMjMtMi42MjJMNS40MTIgNC40MWwuNjk4IDguMDFoOS4xMjZsLS4zMjYgMy40MjYtMi45MS44MDQtMi45NTUtLjgxLS4xODgtMi4xMUg2LjI0OGwuMzMgNC4xNzFMMTIgMTkuMzUxbDUuMzc5LTEuNDQzLjc0NC04LjE1N0g4LjUzMXoiLz48L3N2Zz4=;" vertex="1" parent="1">
          <mxGeometry x="210" y="360" width="90" height="60" as="geometry" />
        </mxCell>
        <mxCell id="pYAwiIOYewWWsSjN8rBA-4" style="shape=image;editableCssRules=.*;image=data:image/svg+xml,PHN2ZyB2aWV3Qm94PSIwIDAgMjQgMjQiIHhtbG5zPSJodHRwOi8vd3d3LnczLm9yZy8yMDAwL3N2ZyI+PHN0eWxlPip7ZmlsbDojRjdERjFFfTwvc3R5bGU+PHBhdGggZD0iTTAgMGgyNHYyNEgwVjB6bTIyLjAzNCAxOC4yNzZjLS4xNzUtMS4wOTUtLjg4OC0yLjAxNS0zLjAwMy0yLjg3My0uNzM2LS4zNDUtMS41NTQtLjU4NS0xLjc5Ny0xLjE0LS4wOTEtLjMzLS4xMDUtLjUxLS4wNDYtLjcwNS4xNS0uNjQ2LjkxNS0uODQgMS41MTUtLjY2LjM5LjEyLjc1LjQyLjk3Ni45IDEuMDM0LS42NzYgMS4wMzQtLjY3NiAxLjc1NS0xLjEyNS0uMjctLjQyLS40MDQtLjYwMS0uNTg2LS43OC0uNjMtLjcwNS0xLjQ2OS0xLjA2NS0yLjgzNC0xLjAzNGwtLjcwNS4wODljLS42NzYuMTY1LTEuMzIuNTI1LTEuNzEgMS4wMDUtMS4xNCAxLjI5MS0uODExIDMuNTQxLjU2OSA0LjQ3MSAxLjM2NSAxLjAyIDMuMzYxIDEuMjQ0IDMuNjE2IDIuMjA1LjI0IDEuMTctLjg3IDEuNTQ1LTEuOTY2IDEuNDEtLjgxMS0uMTgtMS4yNi0uNTg2LTEuNzU1LTEuMzM2bC0xLjgzIDEuMDUxYy4yMS40OC40NS42ODkuODEgMS4xMDkgMS43NCAxLjc1NiA2LjA5IDEuNjY2IDYuODcxLTEuMDA0LjAyOS0uMDkuMjQtLjcwNS4wNzQtMS42NWwuMDQ2LjA2N3ptLTguOTgzLTcuMjQ1aC0yLjI0OGMwIDEuOTM4LS4wMDkgMy44NjQtLjAwOSA1LjgwNSAwIDEuMjMyLjA2MyAyLjM2My0uMTM4IDIuNzExLS4zMy42ODktMS4xOC42MDEtMS41NjYuNDgtLjM5Ni0uMTk2LS41OTctLjQ2Ni0uODMtLjg1NS0uMDYzLS4xMDUtLjExLS4xOTYtLjEyNy0uMTk2bC0xLjgyNSAxLjEyNWMuMzA1LjYzLjc1IDEuMTcyIDEuMzI0IDEuNTE3Ljg1NS41MSAyLjAwNC42NzUgMy4yMDcuNDA1Ljc4My0uMjI2IDEuNDU4LS42OTEgMS44MTEtMS40MTEuNTEtLjkzLjQwMi0yLjA3LjM5Ny0zLjM0Ni4wMTItMi4wNTQgMC00LjEwOSAwLTYuMTc5bC4wMDQtLjA1NnoiLz48L3N2Zz4=;" vertex="1" parent="1">
          <mxGeometry x="360" y="360" width="102" height="56" as="geometry" />
        </mxCell>
        <mxCell id="pYAwiIOYewWWsSjN8rBA-5" style="shape=image;editableCssRules=.*;image=data:image/svg+xml,PHN2ZyB2aWV3Qm94PSIwIDAgMjQgMjQiIHhtbG5zPSJodHRwOi8vd3d3LnczLm9yZy8yMDAwL3N2ZyI+PHN0eWxlPip7ZmlsbDojMTU3MkI2fTwvc3R5bGU+PHBhdGggZD0iTTEuNSAwaDIxbC0xLjkxIDIxLjU2M0wxMS45NzcgMjRsLTguNTY1LTIuNDM4TDEuNSAwem0xNy4wOSA0LjQxM0w1LjQxIDQuNDFsLjIxMyAyLjYyMiAxMC4xMjUuMDAyLS4yNTUgMi43MTZoLTYuNjRsLjI0IDIuNTczaDYuMTgybC0uMzY2IDMuNTIzLTIuOTEuODA0LTIuOTU2LS44MS0uMTg4LTIuMTFoLTIuNjFsLjI5IDMuODU1TDEyIDE5LjI4OGw1LjM3My0xLjUzTDE4LjU5IDQuNDE0eiIvPjwvc3ZnPg==;" vertex="1" parent="1">
          <mxGeometry x="290" y="360" width="84" height="60" as="geometry" />
        </mxCell>
        <mxCell id="pYAwiIOYewWWsSjN8rBA-6" style="shape=image;editableCssRules=.*;image=data:image/svg+xml,PHN2ZyB2aWV3Qm94PSIwIDAgMjQgMjQiIHhtbG5zPSJodHRwOi8vd3d3LnczLm9yZy8yMDAwL3N2ZyI+PHN0eWxlPip7ZmlsbDojMDA1RjBGfTwvc3R5bGU+PHBhdGggZD0iTTEuNzI3IDBDLjc4MiAwIC4wMi43NjEuMDIgMS43MDd2MjAuNTg2Qy4wMiAyMy4yNC43ODIgMjQgMS43MjcgMjRoMjAuNTQ2Yy45NDUgMCAxLjcwNy0uNzYxIDEuNzA3LTEuNzA3VjEuNzA3QzIzLjk4Ljc2IDIzLjIxOCAwIDIyLjI3MyAwSDEuNzI3em0xOC43MTQgMy4yNzNjLTEuODYxIDMuNjk0LTMuMyA3LjYyNy01LjY3NCAxMS4wNDYtMS4wNjQgMS41NzQtMi4zMjkgMy4xNjMtNC4xNiAzLjg2LTEuMzEuNTUyLTIuOTM2LjMzNy0zLjk4LS42NDctLjYyOC0uNTIzLS41NC0xLjQzLS4xNzMtMi4wNzUuOTYtMS4yMjQgMi4zNC0yLjAyIDMuNTktMi45MTUgMy44NDItMi42MjUgNy40NDYtNS42NTQgMTAuMzk3LTkuMjd6bS0xLjY5MyAxLjI1Yy0yLjUwMyAyLjc1MS01LjM4MSA1LjE2LTguNDUyIDcuMjY5bC0uMDAzLjAwMi0uMDAzLjAwM2MtMS4zMjcuOTc5LTIuODM1IDEuODI0LTMuOTkzIDMuMTE0LS4zNDkuMzMzLS41ODMgMS4wNDItLjUzNyAxLjQ4MS0uNjIyLTEuMDQzLS44LTIuNjE0LS4yNTctMy43NC41MjYtMS4xOSAxLjc0Mi0xLjgwNyAyLjg3Ni0yLjI5MiAzLjc1Ny0xLjM1MyA2LjY5NS0yLjkyNiAxMC4zNjktNS44MzZ6Ii8+PC9zdmc+;" vertex="1" parent="1">
          <mxGeometry x="355" y="170" width="140" height="110" as="geometry" />
        </mxCell>
        <mxCell id="pYAwiIOYewWWsSjN8rBA-7" value="React&lt;br&gt;UIに利用" style="text;html=1;align=center;verticalAlign=middle;whiteSpace=wrap;rounded=0;" vertex="1" parent="1">
          <mxGeometry x="245" y="290" width="60" height="30" as="geometry" />
        </mxCell>
        <mxCell id="pYAwiIOYewWWsSjN8rBA-8" value="Thymeleaf&lt;br&gt;Reactだめそうならこっち" style="text;html=1;align=center;verticalAlign=middle;whiteSpace=wrap;rounded=0;" vertex="1" parent="1">
          <mxGeometry x="355" y="285" width="145" height="40" as="geometry" />
        </mxCell>
        <mxCell id="pYAwiIOYewWWsSjN8rBA-9" value="Web御三家" style="text;html=1;align=center;verticalAlign=middle;whiteSpace=wrap;rounded=0;" vertex="1" parent="1">
          <mxGeometry x="210" y="330" width="160" height="30" as="geometry" />
        </mxCell>
        <mxCell id="pYAwiIOYewWWsSjN8rBA-10" value="" style="rounded=0;whiteSpace=wrap;html=1;" vertex="1" parent="1">
          <mxGeometry x="600" y="120" width="260" height="200" as="geometry" />
        </mxCell>
        <mxCell id="pYAwiIOYewWWsSjN8rBA-11" value="バックエンド" style="rounded=0;whiteSpace=wrap;html=1;" vertex="1" parent="1">
          <mxGeometry x="600" y="120" width="110" height="40" as="geometry" />
        </mxCell>
        <mxCell id="pYAwiIOYewWWsSjN8rBA-12" style="shape=image;editableCssRules=.*;image=data:image/svg+xml,PHN2ZyB2aWV3Qm94PSIwIDAgMjQgMjQiIHhtbG5zPSJodHRwOi8vd3d3LnczLm9yZy8yMDAwL3N2ZyI+PHN0eWxlPip7ZmlsbDojNkRCMzNGfTwvc3R5bGU+PHBhdGggZD0ibTIzLjY5MyAxMC43MDU4LTQuNzMtOC4xODQ0Yy0uNDA5NC0uNzEwNi0xLjQxNjYtMS4yOTQyLTIuMjQwMi0xLjI5NDJINy4yNzI1Yy0uODE5IDAtMS44MzA4LjU4MzYtMi4yNDAyIDEuMjk0MkwuMzA3IDEwLjcwNThjLS40MDk1LjcxMDYtLjQwOTUgMS44NzMgMCAyLjU4MzdsNC43MjUyIDguMTg5Yy40MDk0LjcxMDcgMS40MTY2IDEuMjk0MyAyLjI0MDIgMS4yOTQzaDkuNDU1Yy44MTkgMCAxLjgyNi0uNTgzNiAyLjI0MDItMS4yOTQybDQuNzI1Mi04LjE4OWMuNDA5NS0uNzEwNy40MDk1LTEuODczMiAwLTIuNTgzOHpNMTAuOTc2MyA1Ljc1NDdjMC0uNTM2NS40Mzc3LS45NzQyLjk3NDItLjk3NDJzLjk3NDIuNDM3Ny45NzQyLjk3NDJ2NS44MjE3YzAgLjUzNjYtLjQzNzcuOTc0Mi0uOTc0Mi45NzQycy0uOTc0Mi0uNDM3Ni0uOTc0Mi0uOTc0MnptLjk3NDIgMTIuNDI5NGMtMy42NDI3IDAtNi42MDc3LTIuOTY1LTYuNjA3Ny02LjYwNzcuMDA0Ny0yLjA4OTYuOTkzLTQuMDUyMSAyLjY2ODUtNS4zMDRhLjg2NTcuODY1NyAwIDAgMSAxLjIxNDIuMTc4OC44NjU3Ljg2NTcgMCAwIDEtLjE3ODggMS4yMTQzYy0yLjE2MDIgMS42MDQ4LTIuNjEyIDQuNjU5Mi0xLjAwNzIgNi44MTk0IDEuNjA0OSAyLjE2MDMgNC42NTkzIDIuNjEyIDYuODE5NSAxLjAwNzIgMS4yMzc4LS45MTc3IDEuOTY3My0yLjM3MiAxLjk2NzMtMy45MTU3YTQuODk3MiA0Ljg5NzIgMCAwIDAtMS45ODYxLTMuOTI1Yy0uMzg2LS4yODI0LS40NjYtLjgyODQtLjE4MzYtMS4yMTQzLjI4MjQtLjM4Ni44MjgzLS40NjYgMS4yMTQzLS4xODM1IDEuNjg5NSAxLjI0NzEgMi42ODI2IDMuMjIzOCAyLjY4NzMgNS4zMjI4IDAgMy42NDc0LTIuOTY1IDYuNjA3Ny02LjYwNzcgNi42MDc3eiIvPjwvc3ZnPg==;" vertex="1" parent="1">
          <mxGeometry x="610" y="170" width="120" height="110" as="geometry" />
        </mxCell>
        <mxCell id="pYAwiIOYewWWsSjN8rBA-13" style="shape=image;editableCssRules=.*;image=data:image/svg+xml,PHN2ZyB2aWV3Qm94PSIwIDAgMjQgMjQiIHhtbG5zPSJodHRwOi8vd3d3LnczLm9yZy8yMDAwL3N2ZyI+PHN0eWxlPip7ZmlsbDojNkRCMzNGfTwvc3R5bGU+PHBhdGggZD0iTTIwLjU5IDIuMDY2IDExLjk5MyAwIDMuNDEgMi4wNjZ2Ni42MTJoNC41NTdhMy44MDQgMy44MDQgMCAwIDAgMCAuOTU0SDMuNDF2My4xMDZDMy40MSAxOS44NjcgMTEuOTk0IDI0IDExLjk5NCAyNHM4LjU4Mi00LjEzMyA4LjU4Mi0xMS4yNThWOS42MzVoLTQuNTQ1YTMuNjE2IDMuNjE2IDAgMCAwIDAtLjk1NGg0LjU1OHpNMTIgMTIuMjYyaC0uMDA2YTMuMTA5IDMuMTA5IDAgMSAxIC4wMDYgMHptLS4wMDYtNC41NzlhLjgwNC44MDQgMCAwIDAtLjM3IDEuNTJ2LjIwOGwuMjM4LjIzN3YuMTU5bC4xNTkuMTU5di4xNTlsLS4xNC4xNC4xNS4yNDZ2LjE1OWwtLjE2LjE4OS4yMjMuMjIyLjI0Ni0uMjQ2VjkuMjE4YS44MDQuODA0IDAgMCAwLS4zNDYtMS41MzV6bTAgLjgzNmEuMjk5LjI5OSAwIDEgMSAuMjk4LS4yOTkuMjk5LjI5OSAwIDAgMS0uMjk4LjN6Ii8+PC9zdmc+;" vertex="1" parent="1">
          <mxGeometry x="730" y="170" width="120" height="110" as="geometry" />
        </mxCell>
        <mxCell id="pYAwiIOYewWWsSjN8rBA-14" value="SpringBoot" style="text;html=1;align=center;verticalAlign=middle;whiteSpace=wrap;rounded=0;" vertex="1" parent="1">
          <mxGeometry x="640" y="280" width="60" height="30" as="geometry" />
        </mxCell>
        <mxCell id="pYAwiIOYewWWsSjN8rBA-15" value="Spring Security" style="text;html=1;align=center;verticalAlign=middle;whiteSpace=wrap;rounded=0;" vertex="1" parent="1">
          <mxGeometry x="760" y="280" width="60" height="30" as="geometry" />
        </mxCell>
        <mxCell id="pYAwiIOYewWWsSjN8rBA-19" style="shape=image;editableCssRules=.*;image=data:image/svg+xml,PHN2ZyB2aWV3Qm94PSIwIDAgMjQgMjQiIHhtbG5zPSJodHRwOi8vd3d3LnczLm9yZy8yMDAwL3N2ZyI+PHN0eWxlPip7ZmlsbDojRjhEQzc1fTwvc3R5bGU+PHBhdGggZD0iTTEyLjY2IDMuNDk0Yy0uMzc3LjYzNy0uNTQ0IDIuMTE0LS41MDIgMy4xNjJsLS4wMDUuMDA0Yy4wMzYuOTQ2LjE2NSAxLjgxNi4zNzIgMi42MTUtMy4wOTYuNzY3LTYuNDY2IDIuNzk1LTguMzUyIDQuNzU0LS44ODItMS4xOS0xLjIzMi0yLjE2OC0xLjMzNi0yLjkwOC0uMTMxLS45MzYuMDkyLTEuNzk0LjY0Ni0yLjQ4Mi44NjctMS4wNzcgMi4wOTgtMS4xNTMgMy4zNjUtLjk0LS4wMjUuMi4wMDEuMzkxLjA4MS41MS4zMzUuNDk0IDIuMTM1LjY2OCAzLjIxLjE4OS0uNzkzLTEuMTEyLTIuNC0xLjY1NC0yLjg0NC0xLjQzN2EuNzYyLjc2MiAwIDAwLS4zMzUuMzU5Yy0uNDM4LS4wNzgtLjg3My0uMTM3LTEuMTktLjEzNC0xLjExNy4wMDgtMS45NzEuMzk4LTIuNjEgMS4xOTMtLjYyOC43OC0uODgyIDEuNzQ3LS43MzQgMi44LjE0Ljk5Ni42MzMgMi4wNTUgMS40NiAzLjE1NC0uMTM4LjE0Ny0uMjcuMjkzLS4zOTguNDM2QzEuNDczIDE3LjAyMyAwIDE5LjQ0IDAgMTkuODQydi4yMDdoMi42NThsLS4wNDYtLjI0NmMtLjE1LS43OTMuMTUtMS43ODUuNzYzLTIuNTI2LjM4Ni0uNDY1IDEuMDI0LS45OTYgMi4wMjctMS4yNDEuODkxLjg3IDIuMDI3IDEuNzk0IDMuMjkxIDIuNjg1aDEuOTc2di0uMjA4YS42NzguNjc4IDAgMDAtLjMyNy0uNTc3Yy0uMzEyLS4yMDQtLjc5NC0uMjMyLTEuMjM3LS4wODEtLjQyMS0uNDctLjY1OC0xLjA5OC0uNzA5LTEuODc3IDQuMjg3LjM4IDguMzg4IDIuMTEgMTMuMDE1IDQuNTI4aDIuNTQ2bC4wMzMtLjE2N2MuMDQ4LS4yMzctLjA4Mi0uNTU2LS4zNDYtLjg1MS0uNDU2LS41MS0xLjM0OS0uNzUyLTIuMDk1LS43MzQtLjUxNC0uNjEyLTMuMzQyLTMuNTkxLTMuNTA3LTMuNzY1YTkuNjI2IDkuNjI2IDAgMDAyLjY3My0yLjg0N2gxLjM4OHYtLjI5OEgyMC44OWE5LjgxIDkuODEgMCAwMC4yMjMtLjQxOWguOTg5di0uMjk5aC0uODQ1Yy42MjgtMS4zNTkuOTc1LTIuOTE4Ljk0Mi00LjYyNWwuMDAzLjAwMmMtLjAwMi0uNDY4LS4xNDctMi40NDUtLjQxNS0yLjk4OS0uNzI2LjI3Ni0yLjA0NyAxLjE3LTIuMzQ2IDIuMDg0YTE0LjU1NyAxNC41NTcgMCAwMC00LjQ2My4wNTZjLS4yMzctLjk4NC0xLjQyMy0xLjczNi0yLjMxOC0yLjE2em0uMTY0LjU3N2MuMjExIDEuMTQ4LjU5MyAxLjg2OSAxLjQyIDIuMjIzLjczNC0uMjEgMS41OC0uMzQgMi40NDgtLjM4OGwuNzE3IDEuNTcxLjQ2LTEuNTg1Yy44NzYuMDI5IDEuNzM2LjE0MiAyLjQ4NS4zNDkuNzYyLS41NTQgMS4wNTctMS40IDEuMjE4LTIuMTM4LjIwMi44Ni4xNzggMi43MTcuMTggMi43MTdhOS44ODMgOS44ODMgMCAwMS0uMTU4IDEuOTg4bC0uODI0LjM1LjcyNi4xMWE5LjE5IDkuMTkgMCAwMS0uMTk4LjcxNGwtLjcwMy4yMDUuNTYuMjAxYy0uMDk0LjI1My0uMi41LS4zMTQuNzM4aC0xLjE2di4yOTloMS4wMDhhOC43ODggOC43ODggMCAwMS0uMjM4LjQxOWgtLjc3di4yOThoLjU4M2E4LjYzNCA4LjYzNCAwIDAxLTIuOTIxIDIuNzQ4Yy0xLjMzNC0uNjY0LTIuMzQxLTEuNjM0LTMuMDc5LTIuNzQ4aC40NDZ2LS4yOThoLS42MzZhOS4xOTUgOS4xOTUgMCAwMS0uMjM2LS40MTloLjg3MnYtLjI5OWgtMS4wMjZhMTAuMTIgMTAuMTIgMCAwMS0uNDYtMS4wOTRsLjUyMi0uMTQ3LS42NTktLjI2M2MtLjA2Ni0uMjE1LS4xMjctLjQzLS4xOC0uNjQ2bDEuMDE1LS4wNjktMS4xNi0uNjE1Yy0uMjgyLTEuNTYzLS4yMjUtMy4wOC4wNjItNC4yMjF6bTIuOTQ2IDIuOTdjLS44OSAwLTEuMjQuOTA5LTEuMjU1Ljk0OGwuMjUyLjA5NGMuMDEyLS4wMzMuMzAyLS43NzMgMS4wMDMtLjc3My4xNTQgMCAuMjYyLjA2Mi4zNC4xOTUuMTgyLjMxNC4xNTIuOTMzIDAgMS41OGgtMS4yMjd2LjI2OWgxLjE1OWE1LjY3OSA1LjY3OSAwIDAxLS40OTYgMS4yMjVsLS4wNjQuMTEyIDEuNTM3Ljk2Ny0uODY1LjU3LjE0OC4yMjQuOTY3LS42MzcgMS4wNDMuNjgxLjE0My0uMjI4LS45NjctLjU5OCAxLjUxOC0uOTg2di0uMDAxYy0uMzE4LS40Ny0uNDItLjg3Mi0uMjg2LTEuMzI5aC4xMDhsMS4xNjctLjAwMS4wMDItLjI2OGgtMS4xNzVjLjIxNi0uNTEuNTItLjk2OCAxLjYwMi0uOTY4di0uMjdjLS45OTkgMC0xLjU5Ni4zOTctMS44ODMgMS4yMzhoLTIuMTU0Yy4xNS0uNjcyLjE3Ny0xLjMzMy0uMDQ2LTEuNzE1YS42My42MyAwIDAwLS41Ny0uMzN6bS41NSAyLjMxM2gyLjEyNmMtLjA5NS4zMDQtLjA1Ny43NjMuMTc4IDEuMTU3aC0yLjczN2MuMTY2LS4zMzQuMzItLjc0LjQzMy0xLjE1N3ptLTMuNjgzLjMyMWMuMTU1LjUxNS4zNDQuOTk3LjU2MiAxLjQ1MWgtLjkxdi4yOTloMS4wNmMuMDc1LjE0Mi4xNTMuMjgyLjIzMy40MTlIMTIuMjl2LjI5OGgxLjQ3OGMuOTEgMS40MTYgMi4xNCAyLjQ5OSAzLjUzNCAzLjMxOGE5LjQ1IDkuNDUgMCAwMC40NTYtLjI4bC4zNjIuMzktLjYxLjkzOCAxLjA0LS40NzQuNjA2LjY1Mi0xLjAxOS43NzYgMS40MDMtLjM2MyAxLjkwNSAyLjA1LjE2LS4wMTRjMS4wMDctLjA4NiAxLjU4LjQ2IDEuNzMuNjMuMTEyLjEyNC4xNzkuMjM3LjIxNS4zMjZoLTIuMDM2Yy00LjY3LTIuNDM3LTguNzcxLTQuMTU1LTEzLjEyNy00LjUzLjAxLS42MDcuMTE3LTEuMjkzLjMyNC0yLjA1OGwtLjQtLjEwOGMtLjIxMy43ODYtLjMyNSAxLjQ5Ny0uMzM4IDIuMTM0LS40NTQtLjAzLS45MS0uMDQ2LTEuMzcxLS4wNDYtLjM5MSAwLS43NDcuMDM2LTEuMDcyLjFhMTQuNzcxIDE0Ljc3MSAwIDAxLTEuMDktMS4yMWMuNTQ2LS41NyAxLjE5LTEuMTIzIDEuODkzLTEuNjQzbC45NjcuNjY4LS4zMTYtMS4xMjhjLjI5Ny0uMi42MDMtLjM5NC45MTQtLjU4bDEuNDM0LjczLS42NzMtMS4xNjJjLjE5OC0uMTA2LjM5OC0uMjEuNTk4LS4zMWwyLjAwNyAxLjM0Ni0uNjYtMS45NTJhMTUuMzIgMTUuMzIgMCAwMTIuMDM0LS42Njd6bTMuNDkyIDEuMTA1aDIuMjJsLTEuMDg0LjcxNXpNNC4xNTMgMTQuNjc1Yy4yNzMuMzM3LjU3Ny42NzguOTEgMS4wMjFhNC4xMDQgNC4xMDQgMCAwMC0yLjAwNyAxLjMxNmMtLjYyOS43Ni0uOTYyIDEuNzYyLS44ODYgMi42MjJILjQ5NWMuMzM3LS43MjggMS42NzctMi44MzMgMy42NTgtNC45NTl6Ii8+PC9zdmc+;" vertex="1" parent="1">
          <mxGeometry x="600" y="328" width="61" height="84" as="geometry" />
        </mxCell>
        <mxCell id="pYAwiIOYewWWsSjN8rBA-20" style="shape=image;editableCssRules=.*;image=data:image/svg+xml,PHN2ZyB2aWV3Qm94PSIwIDAgMjQgMjQiIHhtbG5zPSJodHRwOi8vd3d3LnczLm9yZy8yMDAwL3N2ZyI+PHN0eWxlPip7ZmlsbDojNUZBMDRFfTwvc3R5bGU+PHBhdGggZD0iTTExLjk5OCwyNGMtMC4zMjEsMC0wLjY0MS0wLjA4NC0wLjkyMi0wLjI0N2wtMi45MzYtMS43MzdjLTAuNDM4LTAuMjQ1LTAuMjI0LTAuMzMyLTAuMDgtMC4zODMgYzAuNTg1LTAuMjAzLDAuNzAzLTAuMjUsMS4zMjgtMC42MDRjMC4wNjUtMC4wMzcsMC4xNTEtMC4wMjMsMC4yMTgsMC4wMTdsMi4yNTYsMS4zMzljMC4wODIsMC4wNDUsMC4xOTcsMC4wNDUsMC4yNzIsMGw4Ljc5NS01LjA3NiBjMC4wODItMC4wNDcsMC4xMzQtMC4xNDEsMC4xMzQtMC4yMzhWNi45MjFjMC0wLjA5OS0wLjA1My0wLjE5Mi0wLjEzNy0wLjI0MmwtOC43OTEtNS4wNzJjLTAuMDgxLTAuMDQ3LTAuMTg5LTAuMDQ3LTAuMjcxLDAgTDMuMDc1LDYuNjhDMi45OSw2LjcyOSwyLjkzNiw2LjgyNSwyLjkzNiw2LjkyMXYxMC4xNWMwLDAuMDk3LDAuMDU0LDAuMTg5LDAuMTM5LDAuMjM1bDIuNDA5LDEuMzkyIGMxLjMwNywwLjY1NCwyLjEwOC0wLjExNiwyLjEwOC0wLjg5VjcuNzg3YzAtMC4xNDIsMC4xMTQtMC4yNTMsMC4yNTYtMC4yNTNoMS4xMTVjMC4xMzksMCwwLjI1NSwwLjExMiwwLjI1NSwwLjI1M3YxMC4wMjEgYzAsMS43NDUtMC45NSwyLjc0NS0yLjYwNCwyLjc0NWMtMC41MDgsMC0wLjkwOSwwLTIuMDI2LTAuNTUxTDIuMjgsMTguNjc1Yy0wLjU3LTAuMzI5LTAuOTIyLTAuOTQ1LTAuOTIyLTEuNjA0VjYuOTIxIGMwLTAuNjU5LDAuMzUzLTEuMjc1LDAuOTIyLTEuNjAzbDguNzk1LTUuMDgyYzAuNTU3LTAuMzE1LDEuMjk2LTAuMzE1LDEuODQ4LDBsOC43OTQsNS4wODJjMC41NywwLjMyOSwwLjkyNCwwLjk0NCwwLjkyNCwxLjYwMyB2MTAuMTVjMCwwLjY1OS0wLjM1NCwxLjI3My0wLjkyNCwxLjYwNGwtOC43OTQsNS4wNzhDMTIuNjQzLDIzLjkxNiwxMi4zMjQsMjQsMTEuOTk4LDI0eiBNMTkuMDk5LDEzLjk5MyBjMC0xLjktMS4yODQtMi40MDYtMy45ODctMi43NjNjLTIuNzMxLTAuMzYxLTMuMDA5LTAuNTQ4LTMuMDA5LTEuMTg3YzAtMC41MjgsMC4yMzUtMS4yMzMsMi4yNTgtMS4yMzMgYzEuODA3LDAsMi40NzMsMC4zODksMi43NDcsMS42MDdjMC4wMjQsMC4xMTUsMC4xMjksMC4xOTksMC4yNDcsMC4xOTloMS4xNDFjMC4wNzEsMCwwLjEzOC0wLjAzMSwwLjE4Ni0wLjA4MSBjMC4wNDgtMC4wNTQsMC4wNzQtMC4xMjMsMC4wNjctMC4xOTZjLTAuMTc3LTIuMDk4LTEuNTcxLTMuMDc2LTQuMzg4LTMuMDc2Yy0yLjUwOCwwLTQuMDA0LDEuMDU4LTQuMDA0LDIuODMzIGMwLDEuOTI1LDEuNDg4LDIuNDU3LDMuODk1LDIuNjk1YzIuODgsMC4yODIsMy4xMDMsMC43MDMsMy4xMDMsMS4yNjljMCwwLjk4My0wLjc4OSwxLjQwMi0yLjY0MiwxLjQwMiBjLTIuMzI3LDAtMi44MzktMC41ODQtMy4wMTEtMS43NDJjLTAuMDItMC4xMjQtMC4xMjYtMC4yMTUtMC4yNTMtMC4yMTVoLTEuMTM3Yy0wLjE0MSwwLTAuMjU0LDAuMTEyLTAuMjU0LDAuMjUzIGMwLDEuNDgyLDAuODA2LDMuMjQ4LDQuNjU1LDMuMjQ4QzE3LjUwMSwxNy4wMDcsMTkuMDk5LDE1LjkxLDE5LjA5OSwxMy45OTN6Ii8+PC9zdmc+;" vertex="1" parent="1">
          <mxGeometry x="685" y="325" width="70" height="90" as="geometry" />
        </mxCell>
        <mxCell id="pYAwiIOYewWWsSjN8rBA-21" value="ホスティングするためにいる" style="text;html=1;align=center;verticalAlign=middle;whiteSpace=wrap;rounded=0;" vertex="1" parent="1">
          <mxGeometry x="580" y="412" width="200" height="20" as="geometry" />
        </mxCell>
        <mxCell id="pYAwiIOYewWWsSjN8rBA-22" value="" style="rounded=0;whiteSpace=wrap;html=1;" vertex="1" parent="1">
          <mxGeometry x="910" y="110" width="120" height="170" as="geometry" />
        </mxCell>
        <mxCell id="pYAwiIOYewWWsSjN8rBA-23" value="データベース" style="rounded=0;whiteSpace=wrap;html=1;" vertex="1" parent="1">
          <mxGeometry x="910" y="110" width="100" height="30" as="geometry" />
        </mxCell>
        <mxCell id="pYAwiIOYewWWsSjN8rBA-24" style="shape=image;editableCssRules=.*;image=data:image/svg+xml,PHN2ZyB2aWV3Qm94PSIwIDAgMjQgMjQiIHhtbG5zPSJodHRwOi8vd3d3LnczLm9yZy8yMDAwL3N2ZyI+PHN0eWxlPip7ZmlsbDojMDlEM0FDfTwvc3R5bGU+PHBhdGggZD0iTTIxLjkyIDEwLjg0NmMwLTEuMjIzLTEuNDQtMi4zMDgtMy42NTUtMi45Ny41MzMtMi4yNS4zLTQuMDQtLjc2LTQuNjQ1YTEuNyAxLjcgMCAwIDAtLjg1LS4yMTNjLS45ODkgMC0yLjIzOS42OS0zLjUwMSAxLjg4Ni0xLjI2Mi0xLjE4Ni0yLjUwOS0xLjg3My0zLjQ5Ni0xLjg3M2ExLjcgMS43IDAgMCAwLS44NjMuMjE2Yy0xLjA1NC42MDctMS4yNzMgMi4zODYtLjc0NyA0LjYyNS0yLjIwMy42NTktMy42MzYgMS43MzUtMy42NCAyLjk1My0uMDAzIDEuMjE4IDEuNDQyIDIuMzA4IDMuNjU2IDIuOTY4LS41MzMgMi4yNTEtLjMwMiA0LjA0Ljc2IDQuNjQ1LjI1OS4xNDUuNTUyLjIxOC44NDguMjEzLjk5MSAwIDIuMjQxLS42OSAzLjUwMy0xLjg4NiAxLjI2IDEuMTg2IDIuNTA3IDEuODczIDMuNDk2IDEuODczYTEuNyAxLjcgMCAwIDAgLjg2My0uMjE2YzEuMDU0LS42MDcgMS4yNzEtMi4zODYuNzQ3LTQuNjE2IDIuMjA0LS42NjggMy42MzYtMS43NDQgMy42MzgtMi45Nm0tNy45NTMtNS41NDFjMS40NTQtMS4zMDEgMi4zNjMtMS40NDIgMi42ODYtMS40NDJhLjg0Ljg0IDAgMCAxIC40My4xMDNjLjUwOC4yOS43MSAxLjMxLjU0OSAyLjY2M2ExMCAxMCAwIDAgMS0uMTc4IDEuMDI4IDE3IDE3IDAgMCAwLTIuMjMzLS4zNjcgMTcuNSAxNy41IDAgMCAwLTEuNDYzLTEuNzlxLjA5OC0uMDk4LjIxLS4xOTVtLTQuNDAxIDYuNTQ4cS4yMDguMzk5LjQzOC44Yy4xNTMuMjY4LjMxMy41NC40OS44MDhhMTcgMTcgMCAwIDEtMS4zOTEtLjI1OWMuMTI0LS40NTEuMjgyLS44OTUuNDYzLTEuMzVtLS40OTItMy4zOHEuNjc1LS4xNTggMS40MDgtLjI2Yy0uMTc3LjI2My0uMzMuNTMzLS40OS44MTVzLS4zLjUzMy0uNDM3LjgwMmEyMSAyMSAwIDAgMS0uNDgtMS4zNThNMTAgMTAuODRxLjMzLS42OTcuNzI2LTEuMzk2Yy4yNjctLjQ2NS41NTItLjkxOC44NDctMS4zNXEuNzc2LS4wNiAxLjU5OC0uMDZjLjU0OS4wMDIgMS4wNjUuMDIyIDEuNTc4LjA2My4yOTUuNDMuNTc3Ljg4Ny44NDQgMS4zNC4yNjYuNDUzLjUxMS45MjcuNzMxIDEuMzlhMjAgMjAgMCAwIDEtMS41NzEgMi43NDcgMjAgMjAgMCAwIDEtMy4xNzYtLjAwNCAyMCAyMCAwIDAgMS0uODQ1LTEuMzQgMjEgMjEgMCAwIDEtLjcyNS0xLjM5em01LjgzNC0yLjYyM2MuNDgzLjA2OC45NS4xNTUgMS4zOTIuMjU4LS4xMzEuNDM4LS4yODguODg4LS40NjkgMS4zNHEtLjIwOS0uMzk4LS40NC0uOGEzOCAzOCAwIDAgMC0uNDc2LS43OTh6bS40OSA0LjQyNXEuMjI5LS40MDMuNDM3LS44MDVjLjE3Ny40NjIuMzU1LjkxNy40OCAxLjM2cS0uNjc0LjE1Ny0xLjQwNy4yNTguMjU3LS4zOTUuNDk3LS44MTN6bS0zLjE2NS02LjU0cS40OC41MTMuOTQgMS4xMDdhMjMgMjMgMCAwIDAtLjkyOC0uMDIxYy0uMzE0IDAtLjYzNiAwLS45NDYuMDIxYTE1IDE1IDAgMCAxIC45MzQtMS4xMDZNOS4yMiAzLjk3NGEuODYuODYgMCAwIDEgLjQzOC0uMDk5IDIuMyAyLjMgMCAwIDEgLjkyMi4yMzMgNyA3IDAgMCAxIDEuNzc1IDEuMjAzbC4yMDguMTlhMTcuNSAxNy41IDAgMCAwLTEuNDQ5IDEuNzc2IDE4IDE4IDAgMCAwLTIuMjQ2LjM2NSA5IDkgMCAwIDEtLjE3Ny0xLjAwNmMtLjE4NS0xLjM0LjAyOC0yLjM2My41MjctMi42NTV6bS0uOTQgOS4wMDJhMTAgMTAgMCAwIDEtLjk4My0uMzU1Yy0xLjI2LS41MzMtMi4wNDItMS4yMTYtMi4wNDItMS44UzYuMDQgOS41NTQgNy4zIDkuMDMxYTEwIDEwIDAgMCAxIC45NjYtLjM0NSAxNyAxNyAwIDAgMCAuODEgMi4xNTUgMTggMTggMCAwIDAtLjc5NCAyLjEzM200LjA4NCAzLjM5Yy0xLjQ1NCAxLjMwMi0yLjM2MyAxLjQ0LTIuNjg4IDEuNDRhLjgzLjgzIDAgMCAxLS40My0uMTAyYy0uNTA3LS4yOS0uNzEtMS4zMS0uNTQ4LTIuNjYzYTEwIDEwIDAgMCAxIC4xNzctMS4wMjdxMS4xMDUuMjU1IDIuMjM0LjM2Ni42NzIuOTQ1IDEuNDYzIDEuNzl6bS44MTEtLjhxLS40OC0uNTExLS45NDItMS4xMDYuNDU4LjAyMS45My4wMjFjLjMxNCAwIC42MzYgMCAuOTQ2LS4wMnEtLjQ2MS41OTMtLjkzNSAxLjEwNXptMy45MzggMi4xM2EuODYuODYgMCAwIDEtLjQ0LjEwNWMtLjMyMyAwLTEuMjQzLS4xNDItMi42OTItMS40MzhsLS4yMDctLjE5YTE3LjUgMTcuNSAwIDAgMCAxLjQ0Ny0xLjc3NSAxNyAxNyAwIDAgMCAyLjI0Ny0uMzY2cS4xMTkuNTE4LjE3OCAxLjAwN2MuMTc2IDEuMzM4LS4wMjkgMi4zNjEtLjUzNSAyLjY1em0xLjkxOC01LjA0OXEtLjQ1NS4xODgtLjk2Ni4zNDNhMTcuNSAxNy41IDAgMCAwLS44MTItMi4xNTVxLjQ2OS0xLjA0Ljc5OC0yLjEzLjUuMTUyLjk4My4zNTRjMS4yNTkuNTMzIDIuMDQyIDEuMjE2IDIuMDQgMS44cy0uNzg1IDEuMjU3LTIuMDQ1IDEuNzgxem0tNS44NzMtLjE4Yy4zMjIgMCAuNjM3LS4wOTYuOTA1LS4yNzRhMS42MyAxLjYzIDAgMCAwIC42MDEtLjczMSAxLjYzIDEuNjMgMCAwIDAgLjA5NC0uOTQyIDEuNjMgMS42MyAwIDAgMC0uNDQ1LS44MzUgMS42MyAxLjYzIDAgMCAwLS44MzQtLjQ0NyAxLjYzIDEuNjMgMCAwIDAtLjk0Mi4wOTIgMS42MyAxLjYzIDAgMCAwLS43MzIuNiAxLjYzIDEuNjMgMCAwIDAtLjI3Ni45MDUgMS42IDEuNiAwIDAgMCAuMTIzLjYyNCAxLjYzIDEuNjMgMCAwIDAgMS41MDYgMS4wMDdNMi4zMjggMS4wMTF2MTkuNjQ1SDI0VjEuMDEyem0yMC44MjUgMTguOEgzLjE3NlYxLjg1OWgxOS45Nzd6bS0xNS4wOS02LjAxOWMtLjUzMyAyLjI1MS0uMzAzIDQuMDQuNzU5IDQuNjQ1LjI1OS4xNDUuNTUyLjIxOC44NDkuMjEzLjk5IDAgMi4yNC0uNjkgMy41MDMtMS44ODYgMS4yNiAxLjE4NiAyLjUwNiAxLjg3MyAzLjQ5NSAxLjg3M2ExLjcgMS43IDAgMCAwIC44NjMtLjIxNmMxLjA1NS0uNjA3IDEuMjcxLTIuMzg2Ljc0OC00LjYxNiAyLjIwMy0uNjYgMy42MzYtMS43MzcgMy42MzctMi45NTMuMDAyLTEuMjE2LTEuNDQtMi4zMDgtMy42NTMtMi45Ny41MzItMi4yNS4zLTQuMDQtLjc2LTQuNjQ1YTEuNyAxLjcgMCAwIDAtLjg1LS4yMTNjLS45OSAwLTIuMjQuNjktMy41MDIgMS44ODYtMS4yNjItMS4xODYtMi41MDgtMS44NzMtMy40OTYtMS44NzNhMS43IDEuNyAwIDAgMC0uODYyLjIxNkM3LjczOSAzLjg2MiA3LjUyIDUuNjQgOC4wNDYgNy44OGMtMi4yMDMuNjU5LTMuNjM2IDEuNzM1LTMuNjQgMi45NTMtLjAwMyAxLjIxOCAxLjQ0NCAyLjI5NyAzLjY1OCAyLjk2MXptNC4yOTcgMi41NzNjLTEuNDU0IDEuMzAxLTIuMzYzIDEuNDQtMi42ODggMS40NGEuODMuODMgMCAwIDEtLjQzLS4xMDNjLS41MDctLjI5LS43MS0xLjMxLS41NDgtMi42NjNhMTAgMTAgMCAwIDEgLjE3OC0xLjAyNyAxOCAxOCAwIDAgMCAyLjIzMy4zNjZxLjY3Mi45NDUgMS40NjMgMS43OXptNC40MDItNi41NWEyNCAyNCAwIDAgMC0uNDQtLjhjLS4xNTUtLjI2OS0uMzItLjUzMy0uNDg0LS43OTguNDgzLjA2OC45NS4xNTUgMS4zOTIuMjU4LS4xMy40MzgtLjI4Ni44ODgtLjQ2NyAxLjM0em0uNDgzIDMuMzczcS0uNjczLjE1Ny0xLjQwNy4yNThhMjEgMjEgMCAwIDAgLjkyNy0xLjYxN2MuMTg3LjQ3LjM0OC45MjEuNDc2IDEuMzY4em0tLjkyNS0yLjM3YTIwIDIwIDAgMCAxLTEuNTcyIDIuNzQ3IDIwIDIwIDAgMCAxLTMuMTc2LS4wMDQgMjAgMjAgMCAwIDEtMS41NzYtMi43M3EuMzMtLjY5Ny43MjYtMS4zOTZjLjI2Ni0uNDY1LjU1Mi0uOTE4Ljg0Ny0xLjM1YTIwLjYgMjAuNiAwIDAgMSAzLjE3Ni4wMDRjLjI5NC40MjguNTc3Ljg4Ni44NDMgMS4zNC4yNjYuNDUyLjUxMy45MzUuNzMzIDEuMzk4em0tNS44MjYgMi42NDJhMTcgMTcgMCAwIDEtMS4zOTEtLjI1OWMuMTMtLjQzNy4yODktLjg4OC40Ny0xLjM0cS4yMDguMzk5LjQzOC44Yy4xNTMuMjY4LjMwNi41MzEuNDgzLjhNMTAgOS4wMjNxLS4yMzEuMzk4LS40MzcuODAyYTE4IDE4IDAgMCAxLS40ODgtMS4zNTNxLjY3NS0uMTU2IDEuNDA4LS4yNTljLS4xNjUuMjYzLS4zMjMuNTM0LS40ODMuODFtMy4xNzUgNi41NDJxLS40OC0uNTExLS45NDMtMS4xMDYuNDU4LjAyMS45My4wMjFjLjMxNCAwIC42MzYgMCAuOTQ2LS4wMmExNiAxNiAwIDAgMS0uOTMzIDEuMTA1bTMuOTM3IDIuMTNhLjg2Ljg2IDAgMCAxLS40NC4xMDVjLS4zMjMgMC0xLjI0My0uMTQyLTIuNjkxLTEuNDM4bC0uMjA4LS4xOWExNy41IDE3LjUgMCAwIDAgMS40NDctMS43NzUgMTcgMTcgMCAwIDAgMi4yNDctLjM2NnEuMTIuNTE4LjE3OCAxLjAwN2MuMTc4IDEuMzM4LS4wMjcgMi4zNjEtLjUzMyAyLjY1em0uOTM4LTguOTk0cS41LjE1My45ODMuMzU1YzEuMjYuNTMzIDIuMDQyIDEuMjE3IDIuMDQgMS44LS4wMDEuNTg1LS43ODMgMS4yNzItMi4wNDMgMS43OTZxLS40NTUuMTg4LS45NjYuMzQyYTE3LjUgMTcuNSAwIDAgMC0uODExLTIuMTU1cS40NjgtMS4wNDYuNzk3LTIuMTQ1em0tNC4wODQtMy4zODljMS40NTQtMS4zMDEgMi4zNjMtMS40NDIgMi42ODctMS40NDJhLjg0Ljg0IDAgMCAxIC40My4xMDNjLjUwNy4yOS43MSAxLjMxLjU0OCAyLjY2M2ExMCAxMCAwIDAgMS0uMTc4IDEuMDI4IDE3IDE3IDAgMCAwLTIuMjMzLS4zNjcgMTcuNSAxNy41IDAgMCAwLTEuNDYzLTEuNzlxLjEwMS0uMTA3LjIxMS0uMjAyem0tLjgwNy43OTJxLjQ4LjUxMS45NCAxLjEwNmEyMyAyMyAwIDAgMC0uOTI4LS4wMjFjLS4zMTQgMC0uNjM2IDAtLjk0Ni4wMmExNSAxNSAwIDAgMSAuOTM0LTEuMTA1TTkuMjIgMy45NzRhLjg2Ljg2IDAgMCAxIC40MzgtLjEgMi4zIDIuMyAwIDAgMSAuOTIyLjIzMyA3IDcgMCAwIDEgMS43NzUgMS4yMDNsLjIwOC4xOWExNy41IDE3LjUgMCAwIDAtMS40NDkgMS43NzYgMTggMTggMCAwIDAtMi4yNDYuMzY1IDkgOSAwIDAgMS0uMTc3LTEuMDA2Yy0uMTg1LTEuMzQuMDI4LTIuMzYzLjUyNy0yLjY1NXpNNy4yOTkgOS4wMzFhMTAgMTAgMCAwIDEgLjk2Ni0uMzQ1IDE3IDE3IDAgMCAwIC44MSAyLjE1NSAxOCAxOCAwIDAgMC0uNzk4IDIuMTMgMTAgMTAgMCAwIDEtLjk4NC0uMzU0Yy0xLjI2LS41MzMtMi4wNDEtMS4yMTYtMi4wNDEtMS44cy43ODgtMS4yNjMgMi4wNDctMS43ODZtNS44NTkuMTc3YTEuNjMgMS42MyAwIDAgMC0uOTA2LjI3NCAxLjYzIDEuNjMgMCAwIDAtLjYwMS43MyAxLjYzIDEuNjMgMCAwIDAtLjA5NC45NDIgMS42MyAxLjYzIDAgMCAwIDMuMjI5LS4zMTQgMS42IDEuNiAwIDAgMC0uMTItLjYyNyAxLjYgMS42IDAgMCAwLS4zNTMtLjUzMyAxLjYgMS42IDAgMCAwLS41My0uMzU2IDEuNiAxLjYgMCAwIDAtLjYyNS0uMTI1emExLjYzIDEuNjMgMCAwIDAtLjkwNi4yNzQgMS42MyAxLjYzIDAgMCAwLS42MDEuNzMgMS42MyAxLjYzIDAgMCAwLS4wOTQuOTQyIDEuNjMgMS42MyAwIDAgMCAzLjIyOS0uMzE0IDEuNiAxLjYgMCAwIDAtLjEyLS42MjcgMS42IDEuNiAwIDAgMC0uMzUzLS41MzMgMS42IDEuNiAwIDAgMC0uNTMtLjM1NiAxLjYgMS42IDAgMCAwLS42MjUtLjEyNXphMS42MyAxLjYzIDAgMCAwLS45MDYuMjc0IDEuNjMgMS42MyAwIDAgMC0uNjAxLjczIDEuNjMgMS42MyAwIDAgMC0uMDk0Ljk0MiAxLjYzIDEuNjMgMCAwIDAgMy4yMjktLjMxNCAxLjYgMS42IDAgMCAwLS4xMi0uNjI3IDEuNiAxLjYgMCAwIDAtLjM1My0uNTMzIDEuNiAxLjYgMCAwIDAtLjUzLS4zNTYgMS42IDEuNiAwIDAgMC0uNjI1LS4xMjV6bTguNzYxIDEuNjRjMC0xLjIyMy0xLjQ0LTIuMzA3LTMuNjU0LTIuOTcuNTMzLTIuMjUuMy00LjAzOS0uNzYtNC42NDRhMS43IDEuNyAwIDAgMC0uODUtLjIxM2MtLjk4OSAwLTIuMjM5LjY5LTMuNTAxIDEuODg1LTEuMjYyLTEuMTg2LTIuNTA5LTEuODczLTMuNDk2LTEuODczYTEuNyAxLjcgMCAwIDAtLjg2My4yMTdjLTEuMDU0LjYwNy0xLjI3MyAyLjM4Ni0uNzQ3IDQuNjI1LTIuMjAzLjY1OC0zLjYzNiAxLjczNC0zLjY0IDIuOTUyLS4wMDMgMS4yMTggMS40NDIgMi4zMDggMy42NTYgMi45NjktLjUzMyAyLjI1LS4zMDIgNC4wMzkuNzYgNC42NDQuMjU5LjE0NS41NTIuMjE5Ljg0OC4yMTMuOTkxIDAgMi4yNDEtLjY5IDMuNTAzLTEuODg1IDEuMjYgMS4xODYgMi41MDcgMS44NzMgMy40OTYgMS44NzMuMzAyLjAwNS42LS4wNy44NjMtLjIxNyAxLjA1NC0uNjA3IDEuMjcxLTIuMzg2Ljc0Ny00LjYxNiAyLjIwNC0uNjcxIDMuNjM2LTEuNzQ3IDMuNjM4LTIuOTYzem0tNy45NTItNS41NDRjMS40NTQtMS4zMDEgMi4zNjMtMS40NDIgMi42ODYtMS40NDJhLjg0Ljg0IDAgMCAxIC40My4xMDNjLjUwOC4yOS43MSAxLjMxLjU0OSAyLjY2M2ExMCAxMCAwIDAgMS0uMTc4IDEuMDI4IDE3IDE3IDAgMCAwLTIuMjMzLS4zNjcgMTcuNSAxNy41IDAgMCAwLTEuNDYzLTEuNzlxLjA5OC0uMDk4LjIxLS4xOTVtLTQuNDAxIDYuNTQ4cS4yMDguMzk5LjQzOC44Yy4xNTMuMjY4LjMxMy41NC40OS44MDhhMTcgMTcgMCAwIDEtMS4zOTEtLjI1OWMuMTI0LS40NTEuMjgyLS44OTUuNDYzLTEuMzVtLS40OTItMy4zOHEuNjc1LS4xNTggMS40MDgtLjI2Yy0uMTc3LjI2My0uMzMuNTMzLS40OS44MTVzLS4zLjUzMy0uNDM3LjgwMmEyMSAyMSAwIDAgMS0uNDgtMS4zNThNMTAgMTAuODRxLjMzLS42OTcuNzI2LTEuMzk2Yy4yNjctLjQ2NS41NTItLjkxOC44NDctMS4zNXEuNzc2LS4wNiAxLjU5OC0uMDZjLjU0OS4wMDIgMS4wNjUuMDIyIDEuNTc4LjA2My4yOTUuNDMuNTc3Ljg4Ny44NDQgMS4zNC4yNjYuNDUzLjUxMS45MjcuNzMxIDEuMzlhMjAgMjAgMCAwIDEtMS41NzEgMi43NDcgMjAgMjAgMCAwIDEtMy4xNzYtLjAwNCAyMCAyMCAwIDAgMS0uODQ1LTEuMzQgMjEgMjEgMCAwIDEtLjcyNS0xLjM5em01LjgzNC0yLjYyM2MuNDgzLjA2OC45NS4xNTUgMS4zOTIuMjU4LS4xMzEuNDM4LS4yODguODg4LS40NjkgMS4zNHEtLjIwOS0uMzk4LS40NC0uOGEzOCAzOCAwIDAgMC0uNDc2LS43OTh6bS40OSA0LjQyNXEuMjI5LS40MDMuNDM3LS44MDVjLjE3Ny40NjIuMzU1LjkxNy40OCAxLjM2cS0uNjc0LjE1Ny0xLjQwNy4yNTguMjU3LS4zOTUuNDk3LS44MTN6bS0zLjE2NS02LjU0cS40OC41MTMuOTQgMS4xMDdhMjMgMjMgMCAwIDAtLjkyOC0uMDIxYy0uMzE0IDAtLjYzNiAwLS45NDYuMDIxYTE1IDE1IDAgMCAxIC45MzQtMS4xMDZNOS4yMiAzLjk3NGEuODYuODYgMCAwIDEgLjQzOC0uMDk5IDIuMyAyLjMgMCAwIDEgLjkyMi4yMzMgNyA3IDAgMCAxIDEuNzc1IDEuMjAzbC4yMDguMTlhMTcuNSAxNy41IDAgMCAwLTEuNDQ5IDEuNzc2IDE4IDE4IDAgMCAwLTIuMjQ2LjM2NSA5IDkgMCAwIDEtLjE3Ny0xLjAwNmMtLjE4NS0xLjM0LjAyOC0yLjM2My41MjctMi42NTV6bS0uOTQgOS4wMDJhMTAgMTAgMCAwIDEtLjk4My0uMzU1Yy0xLjI2LS41MzMtMi4wNDItMS4yMTYtMi4wNDItMS44UzYuMDQgOS41NTQgNy4zIDkuMDMxYTEwIDEwIDAgMCAxIC45NjYtLjM0NSAxNyAxNyAwIDAgMCAuODEgMi4xNTUgMTggMTggMCAwIDAtLjc5NCAyLjEzM200LjA4NCAzLjM5Yy0xLjQ1NCAxLjMwMi0yLjM2MyAxLjQ0LTIuNjg4IDEuNDRhLjgzLjgzIDAgMCAxLS40My0uMTAyYy0uNTA3LS4yOS0uNzEtMS4zMS0uNTQ4LTIuNjYzYTEwIDEwIDAgMCAxIC4xNzctMS4wMjdxMS4xMDUuMjU1IDIuMjM0LjM2Ni42NzIuOTQ1IDEuNDYzIDEuNzl6bS44MTEtLjhxLS40OC0uNTExLS45NDItMS4xMDYuNDU4LjAyMS45My4wMjFjLjMxNCAwIC42MzYgMCAuOTQ2LS4wMnEtLjQ2MS41OTMtLjkzNSAxLjEwNXptMy45MzggMi4xM2EuODYuODYgMCAwIDEtLjQ0LjEwNWMtLjMyMyAwLTEuMjQzLS4xNDItMi42OTItMS40MzhsLS4yMDctLjE5YTE3LjUgMTcuNSAwIDAgMCAxLjQ0Ny0xLjc3NSAxNyAxNyAwIDAgMCAyLjI0Ny0uMzY2cS4xMTkuNTE4LjE3OCAxLjAwN2MuMTc2IDEuMzM4LS4wMjkgMi4zNjEtLjUzNSAyLjY1em0xLjkxOC01LjA0OXEtLjQ1NS4xODgtLjk2Ni4zNDNhMTcuNSAxNy41IDAgMCAwLS44MTItMi4xNTVxLjQ2OS0xLjA0Ljc5OC0yLjEzLjUuMTUyLjk4My4zNTRjMS4yNTkuNTMzIDIuMDQyIDEuMjE2IDIuMDQgMS44cy0uNzg1IDEuMjU3LTIuMDQ1IDEuNzgxem0tNS44NzMtLjE4Yy4zMjIgMCAuNjM3LS4wOTYuOTA1LS4yNzRhMS42MyAxLjYzIDAgMCAwIC42MDEtLjczMSAxLjYzIDEuNjMgMCAwIDAgLjA5NC0uOTQyIDEuNjMgMS42MyAwIDAgMC0uNDQ1LS44MzUgMS42MyAxLjYzIDAgMCAwLS44MzQtLjQ0NyAxLjYzIDEuNjMgMCAwIDAtLjk0Mi4wOTIgMS42MyAxLjYzIDAgMCAwLS43MzIuNiAxLjYzIDEuNjMgMCAwIDAtLjI3Ni45MDUgMS42IDEuNiAwIDAgMCAuMTIzLjYyNCAxLjYzIDEuNjMgMCAwIDAgMS41MDYgMS4wMDdNLjg1IDIyLjE0VjIuNDlMMCAzLjM0MXYxOS42NDdoMjEuNjY5bC44NDktLjg0N3oiLz48L3N2Zz4=;" vertex="1" parent="1">
          <mxGeometry x="796" y="378" width="54" height="54" as="geometry" />
        </mxCell>
        <mxCell id="pYAwiIOYewWWsSjN8rBA-25" style="shape=image;editableCssRules=.*;image=data:image/svg+xml,PHN2ZyB2aWV3Qm94PSIwIDAgMjQgMjQiIHhtbG5zPSJodHRwOi8vd3d3LnczLm9yZy8yMDAwL3N2ZyI+PHN0eWxlPip7ZmlsbDojMDAzNTQ1fTwvc3R5bGU+PHBhdGggZD0iTTIzLjE1NyA0LjQxMmMtLjY3Ni4yODQtLjc5LjMxLTEuNjczLjM3Mi0uNjUuMDQ1LS43NTcuMDU3LTEuMjEyLjIwOS0uNzUuMjQ2LTEuMzk1Ljc1LTIuMDIgMS41OS0uMjk2LjM5OC0xLjI0OSAxLjkxMy0xLjI0OSAxLjk4OCAwIC4wNTctLjY1Ljk5OC0uOTE1IDEuMzItLjU3NC43MTMtMS4wOCAxLjA3OS0yLjE0IDEuNTktLjc3LjM2LTEuMjI0LjUyNC00LjEwMiAxLjQ3Ny0xLjA3My4zNTMtMi4xMzMuNzM4LTIuMzY3Ljg2NC0uODUyLjQ0OS0xLjUxNSAxLjAzNi0yLjIwMyAxLjkzOC0xLjAwMyAxLjMyLS45NzIgMS4zMTMtMy4wNDIuOTQ3YTEyLjI2NCAxMi4yNjQgMCAwMC0uNjc1LS4wNjNjLS42NDQtLjA1LTEuMDIzLjA0NC0xLjMzMi4zMzRMMCAxNy4xOTNsLjE3Ny4wODhjLjA5NC4wNS4zNTMuMjM0LjU2MS4zOTguMjE1LjE3LjQ2MS4zNDcuNTUuMzkxLjA4OC4wNDQuMTcuMDg4LjE4My4xMDEuMDEyLjAxMy0uMDg5LjE3LS4yMjguMzUzLS40MzUuNTgxLS41OTMuODcxLS41NzQgMS4wNDguMDE5LjE2NC4wMzIuMTcuNDMuMTcuNTE3LS4wMDYuODI2LS4wNTYgMS4yNjEtLjIwOC42NS0uMjMzIDIuMDU4LS45NCAyLjc4NC0xLjQuNzc2LS41IDEuNzE3LS45OTggMS45NTYtMS4wNDIuMDgyLS4wMi4zNTQtLjA3LjU5NC0uMTE0LjU4LS4xMDcgMS40NjQtLjA5NSAyLjU4Ny4wNS4xMDguMDEzLjM3My4wNDUuNi4wNjQuMjI3LjAyNS40My4wNTcuNDU0LjA3Ni4wMjYuMDEyLjQ3NC4wMzcuOTk4LjA1Ni45MzQuMDI2IDEuMTA0LjAwNyAxLjMtLjE4OS4xMjYtLjEzMy4zODUtLjYzMS40OTgtLjk4NS4yMDktLjY0My40MTctLjkyMS4zNjYtLjQ5Mi0uMTEzLjk2Ni0uMzIyIDEuNjkyLS43MTMgMi40MTEtLjI1OS40OTktLjY2MyAxLjA5Mi0uOTM0IDEuMzk1LS4zMjIuMzQ3LS4zMTUuMzYuMDg4LjMxNS42MTktLjA2MyAxLjQ3MS0uMzk3IDIuMDk2LS44Mi44MjctLjU2MiAxLjY0Ny0xLjY5MSAyLjE5LTMuMDMuMTA3LS4yNy4yMi0uMjIuMTgzLjA4My0uMDEzLjA5NC0uMDM4LjMxNS0uMDU3LjQ5OGwtLjAzMS4zMjguMzUzLS4yMDJjLjgzMy0uNDggMS40MTQtMS4yNjIgMi4xMjctMi44ODQuMjI3LS41MTguODc3LTIuOTIyIDEuMDczLTMuOTc2YTkuNjQgOS42NCAwIDAxLjI3MS0xLjA0MmMuMTI3LS40MjkuMTk2LS41NTUuNDgtLjg1OC4xODMtLjE5LjYyNS0uNTU1Ljk3OC0uODA4LjcyLS41MDUuOTUzLS43NSAxLjE4Ny0xLjIwNS4yMDgtLjQxNy4yODQtMS4xMy4xMzItMS4zNTctLjEzMi0uMjAyLS4yODQtLjE5Ni0uNzYzLjAwNloiLz48L3N2Zz4=;" vertex="1" parent="1">
          <mxGeometry x="928" y="148" width="84" height="94" as="geometry" />
        </mxCell>
        <mxCell id="pYAwiIOYewWWsSjN8rBA-26" value="MariaDB" style="text;html=1;align=center;verticalAlign=middle;whiteSpace=wrap;rounded=0;" vertex="1" parent="1">
          <mxGeometry x="940" y="242" width="60" height="30" as="geometry" />
        </mxCell>
        <mxCell id="pYAwiIOYewWWsSjN8rBA-27" value="" style="rounded=0;whiteSpace=wrap;html=1;" vertex="1" parent="1">
          <mxGeometry x="560" y="480" width="320" height="170" as="geometry" />
        </mxCell>
        <mxCell id="pYAwiIOYewWWsSjN8rBA-28" value="REST API" style="rounded=0;whiteSpace=wrap;html=1;" vertex="1" parent="1">
          <mxGeometry x="560" y="480" width="100" height="30" as="geometry" />
        </mxCell>
        <mxCell id="pYAwiIOYewWWsSjN8rBA-29" style="shape=image;editableCssRules=.*;image=data:image/svg+xml,PHN2ZyB2aWV3Qm94PSIwIDAgMjQgMjQiIHhtbG5zPSJodHRwOi8vd3d3LnczLm9yZy8yMDAwL3N2ZyI+PHN0eWxlPip7ZmlsbDojMzc3NkFCfTwvc3R5bGU+PHBhdGggZD0iTTE0LjI1LjE4bC45LjIuNzMuMjYuNTkuMy40NS4zMi4zNC4zNC4yNS4zNC4xNi4zMy4xLjMuMDQuMjYuMDIuMi0uMDEuMTNWOC41bC0uMDUuNjMtLjEzLjU1LS4yMS40Ni0uMjYuMzgtLjMuMzEtLjMzLjI1LS4zNS4xOS0uMzUuMTQtLjMzLjEtLjMuMDctLjI2LjA0LS4yMS4wMkg4Ljc3bC0uNjkuMDUtLjU5LjE0LS41LjIyLS40MS4yNy0uMzMuMzItLjI3LjM1LS4yLjM2LS4xNS4zNy0uMS4zNS0uMDcuMzItLjA0LjI3LS4wMi4yMXYzLjA2SDMuMTdsLS4yMS0uMDMtLjI4LS4wNy0uMzItLjEyLS4zNS0uMTgtLjM2LS4yNi0uMzYtLjM2LS4zNS0uNDYtLjMyLS41OS0uMjgtLjczLS4yMS0uODgtLjE0LTEuMDUtLjA1LTEuMjMuMDYtMS4yMi4xNi0xLjA0LjI0LS44Ny4zMi0uNzEuMzYtLjU3LjQtLjQ0LjQyLS4zMy40Mi0uMjQuNC0uMTYuMzYtLjEuMzItLjA1LjI0LS4wMWguMTZsLjA2LjAxaDguMTZ2LS44M0g2LjE4bC0uMDEtMi43NS0uMDItLjM3LjA1LS4zNC4xMS0uMzEuMTctLjI4LjI1LS4yNi4zMS0uMjMuMzgtLjIuNDQtLjE4LjUxLS4xNS41OC0uMTIuNjQtLjEuNzEtLjA2Ljc3LS4wNC44NC0uMDIgMS4yNy4wNXptLTYuMyAxLjk4bC0uMjMuMzMtLjA4LjQxLjA4LjQxLjIzLjM0LjMzLjIyLjQxLjA5LjQxLS4wOS4zMy0uMjIuMjMtLjM0LjA4LS40MS0uMDgtLjQxLS4yMy0uMzMtLjMzLS4yMi0uNDEtLjA5LS40MS4wOXptMTMuMDkgMy45NWwuMjguMDYuMzIuMTIuMzUuMTguMzYuMjcuMzYuMzUuMzUuNDcuMzIuNTkuMjguNzMuMjEuODguMTQgMS4wNC4wNSAxLjIzLS4wNiAxLjIzLS4xNiAxLjA0LS4yNC44Ni0uMzIuNzEtLjM2LjU3LS40LjQ1LS40Mi4zMy0uNDIuMjQtLjQuMTYtLjM2LjA5LS4zMi4wNS0uMjQuMDItLjE2LS4wMWgtOC4yMnYuODJoNS44NGwuMDEgMi43Ni4wMi4zNi0uMDUuMzQtLjExLjMxLS4xNy4yOS0uMjUuMjUtLjMxLjI0LS4zOC4yLS40NC4xNy0uNTEuMTUtLjU4LjEzLS42NC4wOS0uNzEuMDctLjc3LjA0LS44NC4wMS0xLjI3LS4wNC0xLjA3LS4xNC0uOS0uMi0uNzMtLjI1LS41OS0uMy0uNDUtLjMzLS4zNC0uMzQtLjI1LS4zNC0uMTYtLjMzLS4xLS4zLS4wNC0uMjUtLjAyLS4yLjAxLS4xM3YtNS4zNGwuMDUtLjY0LjEzLS41NC4yMS0uNDYuMjYtLjM4LjMtLjMyLjMzLS4yNC4zNS0uMi4zNS0uMTQuMzMtLjEuMy0uMDYuMjYtLjA0LjIxLS4wMi4xMy0uMDFoNS44NGwuNjktLjA1LjU5LS4xNC41LS4yMS40MS0uMjguMzMtLjMyLjI3LS4zNS4yLS4zNi4xNS0uMzYuMS0uMzUuMDctLjMyLjA0LS4yOC4wMi0uMjFWNi4wN2gyLjA5bC4xNC4wMXptLTYuNDcgMTQuMjVsLS4yMy4zMy0uMDguNDEuMDguNDEuMjMuMzMuMzMuMjMuNDEuMDguNDEtLjA4LjMzLS4yMy4yMy0uMzMuMDgtLjQxLS4wOC0uNDEtLjIzLS4zMy0uMzMtLjIzLS40MS0uMDgtLjQxLjA4eiIvPjwvc3ZnPg==;" vertex="1" parent="1">
          <mxGeometry x="590.5" y="520" width="80" height="70" as="geometry" />
        </mxCell>
        <mxCell id="pYAwiIOYewWWsSjN8rBA-31" value="Python&lt;br&gt;FlaskでAPI作る" style="text;html=1;align=center;verticalAlign=middle;whiteSpace=wrap;rounded=0;" vertex="1" parent="1">
          <mxGeometry x="560.5" y="600" width="140" height="30" as="geometry" />
        </mxCell>
        <mxCell id="pYAwiIOYewWWsSjN8rBA-32" value="&lt;h1 style=&quot;margin-top: 0px;&quot;&gt;備考&lt;/h1&gt;&lt;p&gt;AIのAPIやGoogleのAPIを叩くためのコードが動かなかったらPython使ってREST API作ってごまかす&lt;/p&gt;" style="text;html=1;whiteSpace=wrap;overflow=hidden;rounded=0;" vertex="1" parent="1">
          <mxGeometry x="690" y="550" width="190" height="120" as="geometry" />
        </mxCell>
        <mxCell id="pYAwiIOYewWWsSjN8rBA-34" value="Webページ動作系" style="rounded=0;whiteSpace=wrap;html=1;" vertex="1" parent="1">
          <mxGeometry x="190" y="80" width="120" height="30" as="geometry" />
        </mxCell>
        <mxCell id="pYAwiIOYewWWsSjN8rBA-35" value="" style="endArrow=classic;startArrow=classic;html=1;rounded=0;entryX=0.898;entryY=0.996;entryDx=0;entryDy=0;entryPerimeter=0;exitX=0.75;exitY=0;exitDx=0;exitDy=0;" edge="1" parent="1" source="pYAwiIOYewWWsSjN8rBA-27" target="pYAwiIOYewWWsSjN8rBA-18">
          <mxGeometry width="50" height="50" relative="1" as="geometry">
            <mxPoint x="920" y="500" as="sourcePoint" />
            <mxPoint x="970" y="450" as="targetPoint" />
          </mxGeometry>
        </mxCell>
        <mxCell id="pYAwiIOYewWWsSjN8rBA-36" value="" style="endArrow=classic;startArrow=classic;html=1;rounded=0;exitX=1;exitY=0.25;exitDx=0;exitDy=0;entryX=0;entryY=0.5;entryDx=0;entryDy=0;" edge="1" parent="1" source="pYAwiIOYewWWsSjN8rBA-18" target="pYAwiIOYewWWsSjN8rBA-22">
          <mxGeometry width="50" height="50" relative="1" as="geometry">
            <mxPoint x="960" y="400" as="sourcePoint" />
            <mxPoint x="1010" y="350" as="targetPoint" />
          </mxGeometry>
        </mxCell>
      </root>
    </mxGraphModel>
  </diagram>
</mxfile>
